<?xml version="1.0" encoding="UTF-8" standalone="no" ?>
<!DOCTYPE svg PUBLIC "-//W3C//DTD SVG 1.1//EN" "http://www.w3.org/Graphics/SVG/1.1/DTD/svg11.dtd">
<svg width="171mm" xmlns="http://www.w3.org/2000/svg" height="227mm" version="1.1" viewBox="0 0 647 860" xmlns:xlink="http://www.w3.org/1999/xlink">
   <text x="283" y="606" fill="#408080" font-size="10" font-family="Arial">&lt;reference&gt;</text>
   <text x="283" y="616" fill="#408080" font-size="10" font-family="Arial">&lt;orderId&gt;1234567&lt;/orderId&gt;</text>
   <text x="283" y="626" fill="#408080" font-size="10" font-family="Arial">&lt;/reference&gt;</text>
   <polyline fill="none" points="105,324 102,624" stroke="#0000ff" stroke-width="1"/>
   <polygon fill="#0000ff" points="104,459 101,446 107,446" stroke="#0000ff" stroke-width="1" stroke-linejoin="miter"/>
   <text x="104" y="435" fill="#000000" font-size="10" font-family="Arial" text-anchor="middle">FK_ORDERS_REF_CUSTO_CUSTOMER</text>
   <polyline fill="none" points="105,324 104,102" stroke="#0000ff" stroke-width="1"/>
   <polygon fill="#0000ff" points="104,143 107,157 101,157" stroke="#0000ff" stroke-width="1" stroke-linejoin="miter"/>
   <text x="104" y="196" fill="#000000" font-size="10" font-family="Arial" text-anchor="middle">FK_ORDERS_REF_ORDER_ORDERSTA</text>
   <polyline fill="none" points="310,102 542,327" stroke="#0000ff" stroke-width="1"/>
   <polygon fill="#0000ff" points="453,240 441,233 445,229" stroke="#0000ff" stroke-width="1" stroke-linejoin="miter"/>
   <text x="427" y="218" fill="#000000" font-size="10" font-family="Arial" text-anchor="middle">FK_ORDERDET_REF_PRODU_PRODUCTS</text>
   <polyline fill="none" points="310,102 105,324" stroke="#0000ff" stroke-width="1"/>
   <polygon fill="#0000ff" points="180,243 187,231 191,235" stroke="#0000ff" stroke-width="1" stroke-linejoin="miter"/>
   <text x="200" y="224" fill="#000000" font-size="10" font-family="Arial" text-anchor="middle">FK_ORDERDET_REF_ORDER_ORDERS</text>
   <polyline fill="none" points="406,784 102,624" stroke="#0000ff" stroke-width="1"/>
   <polygon fill="#0000ff" points="197,674 210,678 207,683" stroke="#0000ff" stroke-width="1" stroke-linejoin="miter"/>
   <text x="249" y="704" fill="#000000" font-size="10" font-family="Arial" text-anchor="middle">FK_CUSTOMER_REF_CUSTO_CUSTOMER</text>
   <polyline fill="none" points="518,594 542,327" stroke="#0000ff" stroke-width="1"/>
   <polygon fill="#0000ff" points="532,434 534,447 528,447" stroke="#0000ff" stroke-width="1" stroke-linejoin="miter"/>
   <text x="529" y="473" fill="#000000" font-size="10" font-family="Arial" text-anchor="middle">FK_PRODUCTT_REF_PRODU_PRODUCTS</text>
   <polyline fill="none" points="536,113 538,267" stroke="#0000ff" stroke-width="1"/>
   <polygon fill="#0000ff" points="537,220 534,207 540,207" stroke="#0000ff" stroke-width="1" stroke-linejoin="miter"/>
   <text x="537" y="183" fill="#000000" font-size="10" font-family="Arial" text-anchor="middle">FK_PRODUCTP_REF_PRODU_PRODUCTS</text>
   <polyline fill="none" points="308,447 471,447 471,430 308,430 308,447" stroke="#0000ff" stroke-width="1" stroke-dasharray="16,8"/>
   <polyline fill="none" points="304,425 308,439 312,425" stroke="#0000ff" stroke-width="1"/>
   <text x="471" y="433" fill="#000000" font-size="10" font-family="Arial" text-anchor="middle">&lt;&lt;DBCreateAfter&gt;&gt;</text>
   <polyline fill="none" points="308,447 102,624" stroke="#0000ff" stroke-width="1" stroke-dasharray="16,8"/>
   <polyline fill="none" points="205,531 197,542 210,537" stroke="#0000ff" stroke-width="1"/>
   <text x="247" y="502" fill="#000000" font-size="10" font-family="Arial" text-anchor="middle">&lt;&lt;DBCreateAfter&gt;&gt;</text>
   <polyline fill="none" points="308,447 109,320" stroke="#0000ff" stroke-width="1" stroke-dasharray="16,8"/>
   <polyline fill="none" points="207,378 194,374 203,385" stroke="#0000ff" stroke-width="1"/>
   <text x="244" y="409" fill="#000000" font-size="10" font-family="Arial" text-anchor="middle">&lt;&lt;DBCreateAfter&gt;&gt;</text>
   <polyline fill="none" points="308,447 312,100" stroke="#0000ff" stroke-width="1" stroke-dasharray="16,8"/>
   <polyline fill="none" points="315,216 311,202 307,216" stroke="#0000ff" stroke-width="1"/>
   <text x="309" y="323" fill="#000000" font-size="10" font-family="Arial" text-anchor="middle">&lt;&lt;DBCreateAfter&gt;&gt;</text>
   <polyline fill="none" points="308,447 542,327" stroke="#0000ff" stroke-width="1" stroke-dasharray="16,8"/>
   <polyline fill="none" points="443,382 453,373 439,375" stroke="#0000ff" stroke-width="1"/>
   <text x="389" y="408" fill="#000000" font-size="10" font-family="Arial" text-anchor="middle">&lt;&lt;DBCreateAfter&gt;&gt;</text>
   <rect x="6" y="459" fill="#c0ffc0" width="191" height="330" stroke="#0000ff" stroke-width="1"/>
   <text x="100" y="472" fill="#000000" font-size="10" font-family="Arial" text-anchor="middle">Customers</text>
   <line x1="6" x2="197" y1="479" y2="479" stroke="#0000ff" stroke-width="1"/>
   <text x="10" y="489" fill="#000000" font-size="10" font-family="Arial" text-decoration="underline">CustomerID</text>
   <text x="10" y="502" fill="#000000" font-size="10" font-family="Arial">FullName</text>
   <text x="10" y="515" fill="#000000" font-size="10" font-family="Arial">FirstName</text>
   <text x="10" y="528" fill="#000000" font-size="10" font-family="Arial">LastName</text>
   <text x="10" y="541" fill="#000000" font-size="10" font-family="Arial">AddressLine</text>
   <text x="10" y="554" fill="#000000" font-size="10" font-family="Arial">City</text>
   <text x="10" y="567" fill="#000000" font-size="10" font-family="Arial">County</text>
   <text x="10" y="580" fill="#000000" font-size="10" font-family="Arial">Postcode</text>
   <text x="10" y="593" fill="#000000" font-size="10" font-family="Arial">PhoneNumber</text>
   <text x="10" y="606" fill="#000000" font-size="10" font-family="Arial">EmailAddress</text>
   <text x="10" y="619" fill="#000000" font-size="10" font-family="Arial">DateOfBirth</text>
   <text x="10" y="632" fill="#000000" font-size="10" font-family="Arial">AccountBalance</text>
   <text x="10" y="645" fill="#000000" font-size="10" font-family="Arial">CreatedBy</text>
   <text x="10" y="658" fill="#000000" font-size="10" font-family="Arial">CreatedAt</text>
   <text x="10" y="671" fill="#000000" font-size="10" font-family="Arial">UpdatedBy</text>
   <text x="10" y="684" fill="#000000" font-size="10" font-family="Arial">UpdatedAt</text>
   <text x="95" y="489" fill="#000000" font-size="10" font-family="Arial" text-decoration="underline">bigint</text>
   <text x="95" y="502" fill="#000000" font-size="10" font-family="Arial">nvarchar(255)</text>
   <text x="95" y="515" fill="#000000" font-size="10" font-family="Arial">nvarchar(255)</text>
   <text x="95" y="528" fill="#000000" font-size="10" font-family="Arial">nvarchar(255)</text>
   <text x="95" y="541" fill="#000000" font-size="10" font-family="Arial">nvarchar(500)</text>
   <text x="95" y="554" fill="#000000" font-size="10" font-family="Arial">nvarchar(100)</text>
   <text x="95" y="567" fill="#000000" font-size="10" font-family="Arial">nvarchar(100)</text>
   <text x="95" y="580" fill="#000000" font-size="10" font-family="Arial">nvarchar(20)</text>
   <text x="95" y="593" fill="#000000" font-size="10" font-family="Arial">nvarchar(50)</text>
   <text x="95" y="606" fill="#000000" font-size="10" font-family="Arial">nvarchar(255)</text>
   <text x="95" y="619" fill="#000000" font-size="10" font-family="Arial">date</text>
   <text x="95" y="632" fill="#000000" font-size="10" font-family="Arial">decimal(18,2)</text>
   <text x="95" y="645" fill="#000000" font-size="10" font-family="Arial">varchar(50)</text>
   <text x="95" y="658" fill="#000000" font-size="10" font-family="Arial">datetime</text>
   <text x="95" y="671" fill="#000000" font-size="10" font-family="Arial">varchar(50)</text>
   <text x="95" y="684" fill="#000000" font-size="10" font-family="Arial">datetime</text>
   <text x="168" y="489" fill="#000000" font-size="10" font-family="Arial" text-decoration="underline">&lt;pk&gt;</text>
   <line x1="6" x2="197" y1="691" y2="691" stroke="#0000ff" stroke-width="1"/>
   <text x="30" y="701" fill="#000000" font-size="10" font-family="Arial">IX_CustomersPhone</text>
   <text x="30" y="714" fill="#000000" font-size="10" font-family="Arial">IX_CustoemrsEmail</text>
   <text x="30" y="727" fill="#000000" font-size="10" font-family="Arial">IX_CustomersPostCode</text>
   <text x="30" y="740" fill="#000000" font-size="10" font-family="Arial">IX_CustomersCity</text>
   <text x="30" y="753" fill="#000000" font-size="10" font-family="Arial">IX_CustomersFullName</text>
   <text x="30" y="766" fill="#000000" font-size="10" font-family="Arial">IX_CustomersLastName</text>
   <polyline fill="none" points="14,704 21,704 21,694 14,694 14,704" stroke="#000000" stroke-width="1"/>
   <polyline fill="none" points="16,702 19,702 19,700 16,700 16,702" stroke="#000000" stroke-width="1"/>
   <polyline fill="none" points="16,698 19,698 19,696 16,696 16,698" stroke="#000000" stroke-width="1"/>
   <polyline fill="none" points="14,717 21,717 21,707 14,707 14,717" stroke="#000000" stroke-width="1"/>
   <polyline fill="none" points="16,715 19,715 19,713 16,713 16,715" stroke="#000000" stroke-width="1"/>
   <polyline fill="none" points="16,711 19,711 19,709 16,709 16,711" stroke="#000000" stroke-width="1"/>
   <polyline fill="none" points="14,730 21,730 21,720 14,720 14,730" stroke="#000000" stroke-width="1"/>
   <polyline fill="none" points="16,728 19,728 19,726 16,726 16,728" stroke="#000000" stroke-width="1"/>
   <polyline fill="none" points="16,724 19,724 19,722 16,722 16,724" stroke="#000000" stroke-width="1"/>
   <polyline fill="none" points="14,743 21,743 21,733 14,733 14,743" stroke="#000000" stroke-width="1"/>
   <polyline fill="none" points="16,741 19,741 19,739 16,739 16,741" stroke="#000000" stroke-width="1"/>
   <polyline fill="none" points="16,737 19,737 19,735 16,735 16,737" stroke="#000000" stroke-width="1"/>
   <polyline fill="none" points="14,756 21,756 21,746 14,746 14,756" stroke="#000000" stroke-width="1"/>
   <polyline fill="none" points="16,754 19,754 19,752 16,752 16,754" stroke="#000000" stroke-width="1"/>
   <polyline fill="none" points="16,750 19,750 19,748 16,748 16,750" stroke="#000000" stroke-width="1"/>
   <polyline fill="none" points="14,769 21,769 21,759 14,759 14,769" stroke="#000000" stroke-width="1"/>
   <polyline fill="none" points="16,767 19,767 19,765 16,765 16,767" stroke="#000000" stroke-width="1"/>
   <polyline fill="none" points="16,763 19,763 19,761 16,761 16,763" stroke="#000000" stroke-width="1"/>
   <line x1="6" x2="197" y1="773" y2="773" stroke="#0000ff" stroke-width="1"/>
   <rect x="17" y="243" fill="#c0ffc0" width="177" height="161" stroke="#0000ff" stroke-width="1"/>
   <text x="104" y="256" fill="#000000" font-size="10" font-family="Arial" text-anchor="middle">Orders</text>
   <line x1="17" x2="194" y1="263" y2="263" stroke="#0000ff" stroke-width="1"/>
   <text x="21" y="273" fill="#000000" font-size="10" font-family="Arial" text-decoration="underline">OrderID</text>
   <text x="21" y="286" fill="#000000" font-size="10" font-family="Arial">CustomerID</text>
   <text x="21" y="299" fill="#000000" font-size="10" font-family="Arial">OrderDate</text>
   <text x="21" y="312" fill="#000000" font-size="10" font-family="Arial">TotalAmount</text>
   <text x="21" y="325" fill="#000000" font-size="10" font-family="Arial">StatusID</text>
   <text x="90" y="273" fill="#000000" font-size="10" font-family="Arial" text-decoration="underline">bigint</text>
   <text x="90" y="286" fill="#000000" font-size="10" font-family="Arial">bigint</text>
   <text x="90" y="299" fill="#000000" font-size="10" font-family="Arial">date</text>
   <text x="90" y="312" fill="#000000" font-size="10" font-family="Arial">decimal(18,2)</text>
   <text x="90" y="325" fill="#000000" font-size="10" font-family="Arial">int</text>
   <text x="163" y="273" fill="#000000" font-size="10" font-family="Arial" text-decoration="underline">&lt;pk&gt;</text>
   <text x="163" y="286" fill="#000000" font-size="10" font-family="Arial">&lt;fk1&gt;</text>
   <text x="163" y="325" fill="#000000" font-size="10" font-family="Arial">&lt;fk2&gt;</text>
   <line x1="17" x2="194" y1="332" y2="332" stroke="#0000ff" stroke-width="1"/>
   <text x="40" y="342" fill="#000000" font-size="10" font-family="Arial">IX_OrderCustomers</text>
   <text x="40" y="355" fill="#000000" font-size="10" font-family="Arial">IX_OrderDate</text>
   <text x="40" y="368" fill="#000000" font-size="10" font-family="Arial">IX_OrderStatus</text>
   <text x="40" y="381" fill="#000000" font-size="10" font-family="Arial">IX_OrderAmount</text>
   <polyline fill="none" points="24,345 31,345 31,335 24,335 24,345" stroke="#000000" stroke-width="1"/>
   <polyline fill="none" points="26,343 29,343 29,341 26,341 26,343" stroke="#000000" stroke-width="1"/>
   <polyline fill="none" points="26,339 29,339 29,337 26,337 26,339" stroke="#000000" stroke-width="1"/>
   <polyline fill="none" points="24,358 31,358 31,348 24,348 24,358" stroke="#000000" stroke-width="1"/>
   <polyline fill="none" points="26,356 29,356 29,354 26,354 26,356" stroke="#000000" stroke-width="1"/>
   <polyline fill="none" points="26,352 29,352 29,350 26,350 26,352" stroke="#000000" stroke-width="1"/>
   <polyline fill="none" points="24,371 31,371 31,361 24,361 24,371" stroke="#000000" stroke-width="1"/>
   <polyline fill="none" points="26,369 29,369 29,367 26,367 26,369" stroke="#000000" stroke-width="1"/>
   <polyline fill="none" points="26,365 29,365 29,363 26,363 26,365" stroke="#000000" stroke-width="1"/>
   <polyline fill="none" points="24,384 31,384 31,374 24,374 24,384" stroke="#000000" stroke-width="1"/>
   <polyline fill="none" points="26,382 29,382 29,380 26,380 26,382" stroke="#000000" stroke-width="1"/>
   <polyline fill="none" points="26,378 29,378 29,376 26,376 26,378" stroke="#000000" stroke-width="1"/>
   <line x1="17" x2="194" y1="388" y2="388" stroke="#0000ff" stroke-width="1"/>
   <rect x="32" y="60" fill="#ffff80" width="144" height="83" stroke="#0000ff" stroke-width="1"/>
   <text x="103" y="72" fill="#000000" font-size="10" font-family="Arial" text-anchor="middle">OrderStatus</text>
   <line x1="32" x2="176" y1="79" y2="79" stroke="#0000ff" stroke-width="1"/>
   <text x="36" y="89" fill="#000000" font-size="10" font-family="Arial" text-decoration="underline">StatusID</text>
   <text x="36" y="102" fill="#000000" font-size="10" font-family="Arial">Status</text>
   <text x="83" y="89" fill="#000000" font-size="10" font-family="Arial" text-decoration="underline">int</text>
   <text x="83" y="102" fill="#000000" font-size="10" font-family="Arial">nvarchar(50)</text>
   <text x="149" y="89" fill="#000000" font-size="10" font-family="Arial" text-decoration="underline">&lt;pk&gt;</text>
   <line x1="32" x2="176" y1="109" y2="109" stroke="#0000ff" stroke-width="1"/>
   <line x1="32" x2="176" y1="126" y2="126" stroke="#0000ff" stroke-width="1"/>
   <rect x="453" y="220" fill="#c0ffc0" width="178" height="214" stroke="#0000ff" stroke-width="1"/>
   <text x="541" y="233" fill="#000000" font-size="10" font-family="Arial" text-anchor="middle">Products</text>
   <line x1="453" x2="631" y1="240" y2="240" stroke="#0000ff" stroke-width="1"/>
   <text x="457" y="250" fill="#000000" font-size="10" font-family="Arial" text-decoration="underline">ProductID</text>
   <text x="457" y="263" fill="#000000" font-size="10" font-family="Arial">ProductName</text>
   <text x="457" y="276" fill="#000000" font-size="10" font-family="Arial">Description</text>
   <text x="457" y="289" fill="#000000" font-size="10" font-family="Arial">Price</text>
   <text x="457" y="302" fill="#000000" font-size="10" font-family="Arial">StockQuantity</text>
   <text x="457" y="315" fill="#000000" font-size="10" font-family="Arial">CreatedBy</text>
   <text x="457" y="328" fill="#000000" font-size="10" font-family="Arial">CreatedAt</text>
   <text x="457" y="341" fill="#000000" font-size="10" font-family="Arial">UpdatedBy</text>
   <text x="457" y="354" fill="#000000" font-size="10" font-family="Arial">UpdatedAt</text>
   <text x="530" y="250" fill="#000000" font-size="10" font-family="Arial" text-decoration="underline">bigint</text>
   <text x="530" y="263" fill="#000000" font-size="10" font-family="Arial">nvarchar(255)</text>
   <text x="530" y="276" fill="#000000" font-size="10" font-family="Arial">nvarchar(255)</text>
   <text x="530" y="289" fill="#000000" font-size="10" font-family="Arial">decimal(18,2)</text>
   <text x="530" y="302" fill="#000000" font-size="10" font-family="Arial">int</text>
   <text x="530" y="315" fill="#000000" font-size="10" font-family="Arial">varchar(50)</text>
   <text x="530" y="328" fill="#000000" font-size="10" font-family="Arial">datetime</text>
   <text x="530" y="341" fill="#000000" font-size="10" font-family="Arial">varchar(50)</text>
   <text x="530" y="354" fill="#000000" font-size="10" font-family="Arial">datetime</text>
   <text x="603" y="250" fill="#000000" font-size="10" font-family="Arial" text-decoration="underline">&lt;pk&gt;</text>
   <line x1="453" x2="631" y1="361" y2="361" stroke="#0000ff" stroke-width="1"/>
   <text x="476" y="371" fill="#000000" font-size="10" font-family="Arial">IX_ProdName</text>
   <text x="476" y="384" fill="#000000" font-size="10" font-family="Arial">IX_ProdPrice</text>
   <text x="476" y="397" fill="#000000" font-size="10" font-family="Arial">IX_ProdStockQty</text>
   <text x="476" y="410" fill="#000000" font-size="10" font-family="Arial">IX_ProdID</text>
   <polyline fill="none" points="460,375 468,375 468,364 460,364 460,375" stroke="#000000" stroke-width="1"/>
   <polyline fill="none" points="462,372 466,372 466,370 462,370 462,372" stroke="#000000" stroke-width="1"/>
   <polyline fill="none" points="462,368 466,368 466,366 462,366 462,368" stroke="#000000" stroke-width="1"/>
   <polyline fill="none" points="460,387 468,387 468,377 460,377 460,387" stroke="#000000" stroke-width="1"/>
   <polyline fill="none" points="462,385 466,385 466,383 462,383 462,385" stroke="#000000" stroke-width="1"/>
   <polyline fill="none" points="462,381 466,381 466,379 462,379 462,381" stroke="#000000" stroke-width="1"/>
   <polyline fill="none" points="460,400 468,400 468,390 460,390 460,400" stroke="#000000" stroke-width="1"/>
   <polyline fill="none" points="462,398 466,398 466,396 462,396 462,398" stroke="#000000" stroke-width="1"/>
   <polyline fill="none" points="462,394 466,394 466,392 462,392 462,394" stroke="#000000" stroke-width="1"/>
   <polyline fill="none" points="460,413 468,413 468,403 460,403 460,413" stroke="#000000" stroke-width="1"/>
   <polyline fill="none" points="462,411 466,411 466,409 462,409 462,411" stroke="#000000" stroke-width="1"/>
   <polyline fill="none" points="462,407 466,407 466,405 462,405 462,407" stroke="#000000" stroke-width="1"/>
   <line x1="453" x2="631" y1="417" y2="417" stroke="#0000ff" stroke-width="1"/>
   <text x="476" y="427" fill="#000000" font-size="10" font-family="Arial">trg_CreatePriceHistory</text>
   <polyline fill="none" points="468,424 468,430 459,430 459,423 463,423 466,426 469,423 466,420 463,423 459,423 459,421 465,421" stroke="#000000" stroke-width="1"/>
   <polyline fill="none" points="467,421 468,421 468,422" stroke="#000000" stroke-width="1"/>
   <rect x="226" y="439" rx="2" ry="2" fill="#ffffc0" width="163" height="17" stroke="#0000ff" stroke-width="1"/>
   <image x="232" y="443" width="9" height="9" xlink:href="ER Diagrams_svg_Files/svg_bitmap1.png"/>
   <text x="315" y="450" fill="#000000" font-size="10" font-family="Arial" text-anchor="middle">rpt_CustomerProductByOrder</text>
   <rect x="220" y="2" fill="#c0ffc0" width="181" height="200" stroke="#0000ff" stroke-width="1"/>
   <text x="309" y="15" fill="#000000" font-size="10" font-family="Arial" text-anchor="middle">OrderDetails</text>
   <line x1="220" x2="401" y1="22" y2="22" stroke="#0000ff" stroke-width="1"/>
   <text x="224" y="32" fill="#000000" font-size="10" font-family="Arial" text-decoration="underline">OrderDetailID</text>
   <text x="224" y="45" fill="#000000" font-size="10" font-family="Arial">OrderID</text>
   <text x="224" y="58" fill="#000000" font-size="10" font-family="Arial">ProductID</text>
   <text x="224" y="70" fill="#000000" font-size="10" font-family="Arial">ProductName</text>
   <text x="224" y="83" fill="#000000" font-size="10" font-family="Arial">Quantity</text>
   <text x="224" y="96" fill="#000000" font-size="10" font-family="Arial">UnitPrice</text>
   <text x="224" y="109" fill="#000000" font-size="10" font-family="Arial">LineTotal</text>
   <text x="296" y="32" fill="#000000" font-size="10" font-family="Arial" text-decoration="underline">bigint</text>
   <text x="296" y="45" fill="#000000" font-size="10" font-family="Arial">bigint</text>
   <text x="296" y="58" fill="#000000" font-size="10" font-family="Arial">bigint</text>
   <text x="296" y="70" fill="#000000" font-size="10" font-family="Arial">nvarchar(255)</text>
   <text x="296" y="83" fill="#000000" font-size="10" font-family="Arial">integer</text>
   <text x="296" y="96" fill="#000000" font-size="10" font-family="Arial">decimal(18,2)</text>
   <text x="296" y="109" fill="#000000" font-size="10" font-family="Arial">decimal(18,2)</text>
   <text x="369" y="32" fill="#000000" font-size="10" font-family="Arial" text-decoration="underline">&lt;pk&gt;</text>
   <text x="369" y="45" fill="#000000" font-size="10" font-family="Arial">&lt;fk1&gt;</text>
   <text x="369" y="58" fill="#000000" font-size="10" font-family="Arial">&lt;fk2&gt;</text>
   <line x1="220" x2="401" y1="116" y2="116" stroke="#0000ff" stroke-width="1"/>
   <text x="244" y="126" fill="#000000" font-size="10" font-family="Arial">IX_OD_OrderID</text>
   <text x="244" y="139" fill="#000000" font-size="10" font-family="Arial">IX_OD_ProdID</text>
   <text x="244" y="152" fill="#000000" font-size="10" font-family="Arial">IX_OD_Qty</text>
   <text x="244" y="165" fill="#000000" font-size="10" font-family="Arial">IX_OD_UnitPrice</text>
   <text x="244" y="178" fill="#000000" font-size="10" font-family="Arial">IX_OD_OrderProd</text>
   <polyline fill="none" points="227,130 235,130 235,120 227,120 227,130" stroke="#000000" stroke-width="1"/>
   <polyline fill="none" points="230,128 233,128 233,126 230,126 230,128" stroke="#000000" stroke-width="1"/>
   <polyline fill="none" points="230,124 233,124 233,122 230,122 230,124" stroke="#000000" stroke-width="1"/>
   <polyline fill="none" points="227,143 235,143 235,133 227,133 227,143" stroke="#000000" stroke-width="1"/>
   <polyline fill="none" points="230,141 233,141 233,139 230,139 230,141" stroke="#000000" stroke-width="1"/>
   <polyline fill="none" points="230,137 233,137 233,135 230,135 230,137" stroke="#000000" stroke-width="1"/>
   <polyline fill="none" points="227,156 235,156 235,146 227,146 227,156" stroke="#000000" stroke-width="1"/>
   <polyline fill="none" points="230,154 233,154 233,152 230,152 230,154" stroke="#000000" stroke-width="1"/>
   <polyline fill="none" points="230,150 233,150 233,148 230,148 230,150" stroke="#000000" stroke-width="1"/>
   <polyline fill="none" points="227,169 235,169 235,159 227,159 227,169" stroke="#000000" stroke-width="1"/>
   <polyline fill="none" points="230,167 233,167 233,165 230,165 230,167" stroke="#000000" stroke-width="1"/>
   <polyline fill="none" points="230,163 233,163 233,161 230,161 230,163" stroke="#000000" stroke-width="1"/>
   <polyline fill="none" points="227,182 235,182 235,172 227,172 227,182" stroke="#000000" stroke-width="1"/>
   <polyline fill="none" points="230,180 233,180 233,178 230,178 230,180" stroke="#000000" stroke-width="1"/>
   <polyline fill="none" points="230,176 233,176 233,174 230,174 230,176" stroke="#000000" stroke-width="1"/>
   <line x1="220" x2="401" y1="185" y2="185" stroke="#0000ff" stroke-width="1"/>
   <rect x="300" y="709" fill="#ffff80" width="212" height="149" stroke="#0000ff" stroke-width="1"/>
   <text x="405" y="722" fill="#000000" font-size="10" font-family="Arial" text-anchor="middle">CustomerAccountBalanceTransactions</text>
   <line x1="300" x2="512" y1="729" y2="729" stroke="#0000ff" stroke-width="1"/>
   <text x="304" y="739" fill="#000000" font-size="10" font-family="Arial" text-decoration="underline">TransactionID</text>
   <text x="304" y="752" fill="#000000" font-size="10" font-family="Arial">CustomerID</text>
   <text x="304" y="765" fill="#000000" font-size="10" font-family="Arial">TransactionDate</text>
   <text x="304" y="778" fill="#000000" font-size="10" font-family="Arial">AccountBalance</text>
   <text x="304" y="791" fill="#000000" font-size="10" font-family="Arial">TransactionAmount</text>
   <text x="304" y="804" fill="#000000" font-size="10" font-family="Arial">Reference</text>
   <text x="304" y="817" fill="#000000" font-size="10" font-family="Arial">Notes</text>
   <text x="404" y="739" fill="#000000" font-size="10" font-family="Arial" text-decoration="underline">bigint</text>
   <text x="404" y="752" fill="#000000" font-size="10" font-family="Arial">bigint</text>
   <text x="404" y="765" fill="#000000" font-size="10" font-family="Arial">datetime</text>
   <text x="404" y="778" fill="#000000" font-size="10" font-family="Arial">decimal(18,2)</text>
   <text x="404" y="791" fill="#000000" font-size="10" font-family="Arial">decimal(18,2)</text>
   <text x="404" y="804" fill="#000000" font-size="10" font-family="Arial">xml</text>
   <text x="404" y="817" fill="#000000" font-size="10" font-family="Arial">nvarchar(1000)</text>
   <text x="482" y="739" fill="#000000" font-size="10" font-family="Arial" text-decoration="underline">&lt;pk&gt;</text>
   <text x="482" y="752" fill="#000000" font-size="10" font-family="Arial">&lt;fk&gt;</text>
   <line x1="300" x2="512" y1="824" y2="824" stroke="#0000ff" stroke-width="1"/>
   <line x1="300" x2="512" y1="841" y2="841" stroke="#0000ff" stroke-width="1"/>
   <text x="324" y="851" fill="#000000" font-size="10" font-family="Arial">trg_UpdateCustomerBalance</text>
   <polyline fill="none" points="315,848 315,855 306,855 306,847 310,847 313,851 316,847 313,844 310,847 306,847 306,845 312,845" stroke="#000000" stroke-width="1"/>
   <polyline fill="none" points="314,845 315,845 315,846" stroke="#000000" stroke-width="1"/>
   <rect x="424" y="507" fill="#ffff80" width="188" height="175" stroke="#0000ff" stroke-width="1"/>
   <text x="517" y="520" fill="#000000" font-size="10" font-family="Arial" text-anchor="middle">ProductTransactions</text>
   <line x1="424" x2="612" y1="527" y2="527" stroke="#0000ff" stroke-width="1"/>
   <text x="428" y="537" fill="#000000" font-size="10" font-family="Arial" text-decoration="underline">TransactionID</text>
   <text x="428" y="550" fill="#000000" font-size="10" font-family="Arial">ProductID</text>
   <text x="428" y="563" fill="#000000" font-size="10" font-family="Arial">TransDate</text>
   <text x="428" y="576" fill="#000000" font-size="10" font-family="Arial">TransType</text>
   <text x="428" y="589" fill="#000000" font-size="10" font-family="Arial">TransQuantity</text>
   <text x="428" y="602" fill="#000000" font-size="10" font-family="Arial">StockQuantity</text>
   <text x="428" y="615" fill="#000000" font-size="10" font-family="Arial">UnitPrice</text>
   <text x="428" y="628" fill="#000000" font-size="10" font-family="Arial">Reference</text>
   <text x="428" y="641" fill="#000000" font-size="10" font-family="Arial">Notes</text>
   <text x="502" y="537" fill="#000000" font-size="10" font-family="Arial" text-decoration="underline">bigint</text>
   <text x="502" y="550" fill="#000000" font-size="10" font-family="Arial">bigint</text>
   <text x="502" y="563" fill="#000000" font-size="10" font-family="Arial">datetime</text>
   <text x="502" y="576" fill="#000000" font-size="10" font-family="Arial">int</text>
   <text x="502" y="589" fill="#000000" font-size="10" font-family="Arial">int</text>
   <text x="502" y="602" fill="#000000" font-size="10" font-family="Arial">int</text>
   <text x="502" y="615" fill="#000000" font-size="10" font-family="Arial">decimal(18,2)</text>
   <text x="502" y="628" fill="#000000" font-size="10" font-family="Arial">xml</text>
   <text x="502" y="641" fill="#000000" font-size="10" font-family="Arial">nvarchar(1000)</text>
   <text x="580" y="537" fill="#000000" font-size="10" font-family="Arial" text-decoration="underline">&lt;pk&gt;</text>
   <text x="580" y="550" fill="#000000" font-size="10" font-family="Arial">&lt;fk1&gt;</text>
   <text x="580" y="576" fill="#000000" font-size="10" font-family="Arial">&lt;fk2&gt;</text>
   <line x1="424" x2="612" y1="648" y2="648" stroke="#0000ff" stroke-width="1"/>
   <line x1="424" x2="612" y1="665" y2="665" stroke="#0000ff" stroke-width="1"/>
   <rect x="445" y="17" fill="#c0ffc0" width="178" height="122" stroke="#0000ff" stroke-width="1"/>
   <text x="533" y="29" fill="#000000" font-size="10" font-family="Arial" text-anchor="middle">ProductPriceHistory</text>
   <line x1="445" x2="623" y1="36" y2="36" stroke="#0000ff" stroke-width="1"/>
   <text x="449" y="46" fill="#000000" font-size="10" font-family="Arial" text-decoration="underline">PriceHistoryID</text>
   <text x="449" y="59" fill="#000000" font-size="10" font-family="Arial">TransDate</text>
   <text x="449" y="72" fill="#000000" font-size="10" font-family="Arial">ProductID</text>
   <text x="449" y="85" fill="#000000" font-size="10" font-family="Arial">OldPrice</text>
   <text x="449" y="98" fill="#000000" font-size="10" font-family="Arial">NewPrice</text>
   <text x="522" y="46" fill="#000000" font-size="10" font-family="Arial" text-decoration="underline">bigint</text>
   <text x="522" y="59" fill="#000000" font-size="10" font-family="Arial">datetime</text>
   <text x="522" y="72" fill="#000000" font-size="10" font-family="Arial">bigint</text>
   <text x="522" y="85" fill="#000000" font-size="10" font-family="Arial">decimal(18,2)</text>
   <text x="522" y="98" fill="#000000" font-size="10" font-family="Arial">decimal(18,2)</text>
   <text x="595" y="46" fill="#000000" font-size="10" font-family="Arial" text-decoration="underline">&lt;pk&gt;</text>
   <text x="595" y="72" fill="#000000" font-size="10" font-family="Arial">&lt;fk&gt;</text>
   <line x1="445" x2="623" y1="105" y2="105" stroke="#0000ff" stroke-width="1"/>
   <line x1="445" x2="623" y1="122" y2="122" stroke="#0000ff" stroke-width="1"/>
</svg>
